HIERARCHY
ROOT Hips
{
	OFFSET -0.179506 -22.333345 2.821913
	CHANNELS 6 Xposition Yposition Zposition Zrotation Yrotation Xrotation 
	JOINT LeftUpLeg
	{
		OFFSET 6.951974 -9.140623 -0.681533
		CHANNELS 3 Zrotation Yrotation Xrotation
		JOINT LeftLeg
		{
			OFFSET 3.427654 -37.519855 -0.449580
			CHANNELS 3 Zrotation Yrotation Xrotation
			JOINT LeftFoot
			{
				OFFSET -1.359570 -39.796059 -4.369333
				CHANNELS 3 Zrotation Yrotation Xrotation
				JOINT LeftToe
				{
					OFFSET 2.635814 -5.579078 11.928840
					CHANNELS 3 Zrotation Yrotation Xrotation
					End Site
					{
						OFFSET 0.000000 0.000000 0.000000
					}
				}
			}
		}
	}
	JOINT RightUpLeg
	{
		OFFSET -6.767048 -9.052170 -0.431982
		CHANNELS 3 Zrotation Yrotation Xrotation
		JOINT RightLeg
		{
			OFFSET -3.829005 -38.256897 -0.885003
			CHANNELS 3 Zrotation Yrotation Xrotation
			JOINT RightFoot
			{
				OFFSET 1.577377 -39.841461 -4.231180
				CHANNELS 3 Zrotation Yrotation Xrotation
				JOINT RightToe
				{
					OFFSET -2.537174 -4.814398 12.334795
					CHANNELS 3 Zrotation Yrotation Xrotation
					End Site
					{
						OFFSET 0.000000 0.000000 0.000000
					}
				}
			}
		}
	}
	JOINT Spine
	{
		OFFSET -0.253288 10.896323 -2.669631
		CHANNELS 3 Zrotation Yrotation Xrotation
		JOINT Spine1
		{
			OFFSET 0.548704 13.518043 0.109247
			CHANNELS 3 Zrotation Yrotation Xrotation
			JOINT Spine2
			{
				OFFSET 0.145701 5.292222 2.542457
				CHANNELS 3 Zrotation Yrotation Xrotation
				JOINT Neck
				{
					OFFSET -0.277840 21.387037 -4.285703
					CHANNELS 3 Zrotation Yrotation Xrotation
					JOINT Head
					{
						OFFSET 0.515184 6.496960 5.134897
						CHANNELS 3 Zrotation Yrotation Xrotation
						End Site
						{
							OFFSET 0.000000 0.000000 0.000000
						}
					}
				}
				JOINT LeftShoulder
				{
					OFFSET 7.884473 12.174932 -3.408961
					CHANNELS 3 Zrotation Yrotation Xrotation
					JOINT LeftArm
					{
						OFFSET 9.097692 3.046888 -0.886815
						CHANNELS 3 Zrotation Yrotation Xrotation
						JOINT LeftForeArm
						{
							OFFSET 25.961220 -1.277207 -2.745643
							CHANNELS 3 Zrotation Yrotation Xrotation
							JOINT LeftHand
							{
								OFFSET 24.923361 0.898606 -0.117091
								CHANNELS 3 Zrotation Yrotation Xrotation
								End Site
								{
									OFFSET 0.000000 0.000000 0.000000
								}
							}
						}
					}
				}
				JOINT RightShoulder
				{
					OFFSET -8.175920 11.883285 -3.861528
					CHANNELS 3 Zrotation Yrotation Xrotation
					JOINT RightArm
					{
						OFFSET -9.601238 3.255117 -0.914307
						CHANNELS 3 Zrotation Yrotation Xrotation
						JOINT RightForeArm
						{
							OFFSET -25.374195 -1.332924 -2.140099
							CHANNELS 3 Zrotation Yrotation Xrotation
							JOINT RightHand
							{
								OFFSET -25.529810 0.777228 -0.555919
								CHANNELS 3 Zrotation Yrotation Xrotation
								End Site
								{
									OFFSET 0.000000 0.000000 0.000000
								}
							}
						}
					}
				}
			}
		}
	}
}
MOTION
Frames: 13
Frame Time: 0.033333
-185.844147 34.711025 14.460466 88.916933 3.057734 173.420943 15.336454 9.349309 3.800535 -5.873653 -9.973812 11.606006 -6.420974 10.633816 -21.199773 nan nan nan -15.553188 -6.199645 -2.928111 -0.970857 4.793443 15.898479 6.875755 -8.448541 -17.574585 nan nan nan 0.824944 0.735258 2.875769 -0.396531 -2.783056 -0.074089 1.152750 2.760130 -1.709280 -4.064468 13.849379 2.443034 2.162880 2.243132 -22.727323 11.698340 -13.056142 -11.715155 17.912596 -13.518666 -26.158266 113.480440 -58.852492 -87.269242 20.870206 -25.594270 3.342889 -12.348665 15.566041 -5.637259 -14.061391 9.436362 -36.671263 -110.671020 59.478572 -89.166772 -20.838135 20.395143 0.820268 
-185.815643 34.732239 14.471478 88.818900 3.060526 173.281895 15.255853 9.309019 4.053797 -5.915036 -10.104126 11.460650 -6.290827 10.667546 -21.265439 nan nan nan -15.628676 -6.433489 -2.876383 -1.384404 4.526012 15.933196 6.763164 -8.972006 -17.286397 nan nan nan 0.716675 0.680460 3.044819 -0.400785 -2.795167 -0.447076 1.211547 2.784326 -1.641249 -4.061343 13.429881 2.042831 2.154600 2.095374 -23.054906 11.663369 -13.198908 -11.697518 17.674036 -13.510582 -26.268021 112.497439 -59.178161 -85.384810 20.265878 -25.287978 5.751677 -12.224806 15.690192 -5.531512 -14.228161 9.587226 -36.893257 -109.390796 60.105166 -86.402580 -20.283655 20.291980 3.926980 
-185.806717 34.755642 14.482442 88.801877 3.065263 173.276982 15.229884 9.267905 4.086784 -5.908385 -10.075612 11.440195 -6.250848 10.675562 -21.318317 nan nan nan -15.642143 -6.457666 -2.893496 -1.468365 4.459506 15.961510 6.734854 -9.045351 -17.164923 nan nan nan 0.699778 0.681501 3.016168 -0.386279 -2.784742 -0.544048 1.220501 2.799265 -1.676888 -4.078064 13.345734 1.898949 2.156052 2.072873 -23.190409 11.631212 -13.259871 -11.673857 17.548493 -13.611723 -26.089654 113.330484 -59.479486 -85.925399 19.951770 -25.314884 6.145735 -12.198646 15.701299 -5.500259 -14.206696 9.605918 -36.815124 -109.583424 60.309045 -86.227208 -20.022091 20.277875 4.542174 
-185.764236 34.842041 14.439291 88.502007 3.075143 173.054541 16.150374 9.992549 5.111608 -7.739729 -10.820851 10.305815 -6.519233 9.446218 -20.205753 nan nan nan -16.079842 -6.654756 -2.449533 -1.438979 4.631269 15.802468 6.672182 -8.856332 -17.272126 nan nan nan 0.476556 0.608744 3.293112 -0.641338 -2.712699 -0.718096 1.166339 2.845362 -1.841586 -4.223557 14.431839 0.426024 1.503518 2.040835 -23.434171 11.296715 -14.145817 -11.794647 18.501987 -12.820960 -25.764597 113.261328 -60.342185 -84.810350 24.332510 -27.241197 6.090875 -11.503153 16.417779 -5.289489 -14.457251 8.841309 -36.912958 -110.377291 60.699719 -86.696282 -24.021247 21.898118 4.907751 
-185.796036 34.826260 14.532028 89.291384 3.459263 174.196141 16.886377 9.187206 4.083679 -8.073992 -10.378294 10.455544 -6.284222 6.767323 -19.185538 nan nan nan -15.283496 -2.323180 -1.302718 4.441985 12.552076 13.815530 13.376999 5.130675 -9.818195 nan nan nan 1.303410 1.327851 0.824534 -0.142955 -2.678196 1.335617 0.986651 3.289668 -2.987998 -4.637745 19.754593 8.068405 0.687035 4.908364 -20.417812 9.958314 -15.763019 -12.160494 19.038968 -13.093829 -24.423615 111.725233 -60.215004 -82.769131 28.148499 -33.906264 3.091620 -10.577779 17.184614 -3.665701 -16.007450 6.660199 -37.020707 -110.614110 60.512850 -88.617429 -25.034878 27.695011 4.715924 
-185.689484 34.871994 14.471198 88.094431 3.854800 173.458861 16.022870 8.244331 5.819766 -7.877259 -7.499886 8.974164 -7.824791 4.384419 -17.897858 nan nan nan -16.803866 -0.524132 -0.393316 3.807753 9.361154 13.184755 15.636661 8.086363 -8.374495 nan nan nan 2.126823 -0.928886 1.969431 0.836780 -4.136165 2.900941 -1.019087 0.762810 1.985866 0.582572 10.334805 25.538346 2.614534 -2.606988 -14.193814 16.521059 -2.435803 -6.610084 5.500308 -10.363913 -24.841171 116.507610 -41.240957 -98.773797 24.326059 -31.325445 -23.784644 -17.676274 11.191360 -6.002670 -10.324472 17.912014 -36.788214 -113.187495 50.003907 -100.333643 -17.642867 26.535879 -17.726795 
-185.802399 35.000763 14.545266 88.206509 3.833090 173.591711 16.170843 8.390186 5.522015 -7.817728 -6.978466 9.281106 -7.862671 4.656745 -18.115350 nan nan nan -16.744316 -0.407096 -0.503130 3.870590 9.354904 13.279120 15.477361 7.921652 -8.459574 nan nan nan 2.381484 -1.021128 2.305782 0.651314 -4.035859 1.953749 -0.711417 0.804409 1.286834 0.173813 11.319273 21.114391 2.462816 -2.456862 -17.903898 16.621526 -3.895914 -6.485507 4.670207 -9.236861 -24.182871 116.887065 -41.570595 -98.407330 21.896218 -31.318969 -22.618941 -18.229920 12.500245 -5.465738 -9.646319 16.943788 -36.576691 -113.944382 50.456720 -99.989735 -15.882346 25.836509 -16.610745 
-185.726868 35.098919 14.624565 88.255645 3.784965 173.317813 16.225586 8.149222 5.870541 -7.523421 -6.286087 9.181372 -8.758377 4.436990 -17.923899 nan nan nan -16.600815 0.227493 0.118468 3.859965 9.513480 12.787513 15.261236 7.330731 -8.442861 nan nan nan 2.616719 -1.841688 3.365125 0.040872 -3.524340 1.167909 -0.966893 0.120216 0.633766 -3.070044 0.760324 -0.251803 6.001033 -16.180099 -36.713796 17.961462 -4.306666 -6.786791 3.357239 -6.714477 -23.218326 117.991312 -42.232482 -99.278625 19.115255 -32.007195 -17.399447 -17.660871 15.246212 -6.295701 -8.428652 15.061697 -35.634573 -116.318230 50.764929 -101.385292 -16.281510 24.871386 -16.403275 
-185.831360 35.212997 14.651956 88.229503 3.716940 173.243346 16.229539 8.131016 5.968607 -7.500344 -6.261862 9.291473 -8.828699 4.304866 -18.011879 nan nan nan -16.692960 0.233754 0.247371 3.875898 9.492019 12.840679 15.265112 7.406296 -8.506025 nan nan nan 2.435632 -1.801222 3.569601 0.139696 -3.523929 1.102385 -1.036583 -0.016103 0.725069 -2.548246 -0.178646 -0.438319 6.263883 -16.904460 -35.950679 17.814418 -3.664693 -6.811240 3.610423 -7.165153 -23.268566 117.926474 -42.221310 -99.228139 19.165181 -32.150087 -17.199038 -17.337265 14.817179 -6.384878 -8.385724 15.397314 -35.495105 -117.068953 50.537682 -102.065893 -16.322902 24.949220 -16.487831 
-185.947815 35.297970 14.650633 88.322142 3.663551 173.339951 16.358766 8.288790 5.821715 -7.523086 -6.337793 9.510156 -8.903754 4.220534 -17.972258 nan nan nan -16.678230 0.252238 0.199561 3.902126 9.313662 12.896018 15.296752 7.562663 -8.403228 nan nan nan 2.632908 -1.705263 3.591112 -0.028303 -3.527937 0.536004 -0.596031 0.117221 0.478198 -4.184031 3.914168 -0.330821 4.425879 -13.545702 -36.804433 17.580142 -5.315480 -6.593199 3.345990 -5.789957 -23.010977 118.017016 -42.161813 -99.266185 19.106612 -32.399896 -18.247127 -17.975600 15.585995 -5.759115 -8.019070 14.363956 -35.683271 -117.742085 50.834385 -102.391741 -15.870766 24.888995 -16.066339 
-186.020096 35.367657 14.654222 88.429957 3.646754 173.301554 16.545399 8.318038 5.869431 -7.578330 -6.421443 9.598884 -9.710367 4.234205 -17.889093 nan nan nan -16.640079 0.671369 0.341291 3.761972 8.521532 12.797840 16.141349 8.173711 -8.101703 nan nan nan 2.936314 -1.719473 4.086244 -0.321106 -3.561757 -0.429530 0.000430 -0.094439 0.725695 -7.302461 11.833602 -1.131813 0.234845 -6.977992 -41.322788 17.665896 -6.456868 -6.529516 2.517304 -3.759233 -23.005694 118.354118 -41.930073 -99.633007 18.898300 -32.823311 -19.510153 -19.073363 15.932961 -4.945313 -7.434264 14.182685 -36.729057 -118.499101 50.986499 -102.860017 -14.581290 24.732166 -14.703372 
-186.080124 35.426277 14.682547 88.396708 3.594410 173.329048 16.575335 8.101753 5.906312 -7.763082 -6.543409 9.515225 -10.005261 4.550725 -17.820420 nan nan nan -16.718984 0.764800 0.370381 3.721314 8.401057 12.798890 16.628420 8.194892 -7.983566 nan nan nan 2.767474 -1.560262 4.030353 -0.167677 -3.497390 -0.197776 -0.123353 -0.186748 0.692456 -7.231242 11.565568 -1.547269 0.249209 -6.655435 -41.198869 17.612513 -5.730093 -5.813567 2.472840 -4.828695 -23.257130 120.471732 -41.105972 -102.038629 16.874113 -28.156218 -13.068730 -18.641531 15.079013 -4.309226 -7.782093 14.796375 -37.271009 -119.171901 50.733427 -103.952929 -13.308634 23.433767 -12.715177 
-186.137253 35.473846 14.685633 88.373897 3.528390 173.431646 16.553029 8.041225 5.797351 -7.795508 -6.534535 9.551408 -9.953863 4.575953 -17.782314 nan nan nan -16.769045 0.777989 0.324544 3.704969 8.399305 12.817509 16.696804 8.167569 -7.974237 nan nan nan 2.676457 -1.514561 3.884566 -0.157000 -3.502261 -0.140806 -0.166762 -0.187918 0.732405 -7.228705 11.668394 -1.775804 0.428806 -6.611687 -41.083818 17.595537 -5.589069 -5.794692 2.669024 -5.070828 -23.318017 120.504744 -41.120443 -102.108384 16.593673 -27.606492 -11.977002 -18.474754 14.826362 -4.196817 -7.836611 14.837145 -37.220866 -119.481319 50.584595 -104.387414 -13.050524 23.243508 -12.500744 
